<svg width="118" height="34" viewBox="0 0 118 34" fill="none" xmlns="http://www.w3.org/2000/svg">
<path d="M22.6301 1H10.3699L0.5 10.8699V23.1301L10.3699 33H22.6301L32.5 23.1301V10.8699L22.6301 1ZM12.0663 23.2843L5.74339 16.9614L12.0663 10.6386C14.4566 8.24819 18.3892 8.24819 20.7795 10.6386L27.1024 16.9614L20.7795 23.2843C18.3892 25.6747 14.5337 25.6747 12.0663 23.2843Z" fill="white"/>
<path d="M48.625 26H44.6758L50.6992 8.53906H55.457L61.4688 26H57.5312L53.1484 12.5234H53.0078L48.625 26ZM48.3906 19.1328H57.7305V22.0156H48.3906V19.1328ZM63.1684 26L59.6059 12.8984H63.2856L65.313 21.7109H65.4302L67.5513 12.8984H71.1489L73.2934 21.6523H73.4106L75.4028 12.8984H79.0708L75.5083 26H71.6763L69.4263 17.7617H69.2622L67.0122 26H63.1684ZM83.4658 26.2461C82.6377 26.2461 81.8916 26.1016 81.2275 25.8125C80.5713 25.5156 80.0556 25.0781 79.6806 24.5C79.3056 23.9219 79.1181 23.2031 79.1181 22.3438C79.1181 21.6094 79.2509 21 79.5166 20.5156C79.7822 20.0234 80.1455 19.625 80.6064 19.3203C81.0673 19.0156 81.5908 18.7852 82.1767 18.6289C82.7627 18.4727 83.3838 18.3633 84.04 18.3008C84.7978 18.2305 85.4072 18.1602 85.8681 18.0898C86.3291 18.0195 86.665 17.9141 86.8759 17.7734C87.0947 17.625 87.2041 17.4141 87.2041 17.1406V17.082C87.2041 16.543 87.0322 16.125 86.6884 15.8281C86.3525 15.5312 85.8759 15.3828 85.2588 15.3828C84.6103 15.3828 84.0908 15.5273 83.7002 15.8164C83.3173 16.0977 83.0634 16.457 82.9384 16.8945L79.5752 16.625C79.747 15.8281 80.083 15.1406 80.583 14.5625C81.083 13.9766 81.7275 13.5273 82.5166 13.2148C83.3134 12.8945 84.2353 12.7344 85.2822 12.7344C86.0088 12.7344 86.7041 12.8203 87.3681 12.9922C88.0322 13.1641 88.622 13.4297 89.1377 13.7891C89.6611 14.1406 90.0752 14.5977 90.3798 15.1602C90.6845 15.7227 90.8369 16.3906 90.8369 17.1641V26H87.3798V24.1719H87.2861C87.0752 24.5859 86.7939 24.9492 86.4423 25.2617C86.0908 25.5664 85.6689 25.8086 85.1767 25.9883C84.6845 26.1602 84.1142 26.2461 83.4658 26.2461ZM84.5088 23.7383C85.04 23.7383 85.5088 23.6328 85.915 23.4219C86.3291 23.2031 86.6494 22.9141 86.8759 22.5547C87.1103 22.1875 87.2275 21.7773 87.2275 21.3242V19.9297C87.1181 20 86.9619 20.0664 86.7588 20.1289C86.5634 20.1914 86.3447 20.2461 86.1025 20.293C85.8603 20.3398 85.6181 20.3828 85.3759 20.4219C85.1338 20.4531 84.915 20.4844 84.7197 20.5156C84.29 20.5781 83.915 20.6797 83.5947 20.8203C83.2744 20.9531 83.0244 21.1367 82.8447 21.3711C82.6728 21.5977 82.5869 21.8828 82.5869 22.2266C82.5869 22.7188 82.7666 23.0938 83.1259 23.3516C83.4853 23.6094 83.9463 23.7383 84.5088 23.7383ZM95.7592 22.2266L95.7709 17.8789H96.2983L100.482 12.8984H104.654L99.0288 19.4961H98.1498L95.7592 22.2266ZM92.478 26V8.53906H96.0991V26H92.478ZM100.646 26L96.8022 20.3047L99.2163 17.7266L104.9 26H100.646ZM110.596 26.2578C109.252 26.2578 108.092 25.9844 107.115 25.4375C106.139 24.8906 105.389 24.1133 104.865 23.1055C104.35 22.0898 104.092 20.8906 104.092 19.5078C104.092 18.1641 104.35 16.9844 104.865 15.9688C105.389 14.9531 106.123 14.1602 107.068 13.5898C108.021 13.0195 109.139 12.7344 110.42 12.7344C111.287 12.7344 112.096 12.875 112.846 13.1562C113.596 13.4297 114.252 13.8438 114.814 14.3984C115.377 14.9453 115.814 15.6367 116.127 16.4727C116.439 17.3008 116.596 18.2734 116.596 19.3906V20.375H105.533V18.1367H114.838L113.15 18.7227C113.15 18.0586 113.049 17.4805 112.846 16.9883C112.643 16.4961 112.338 16.1172 111.932 15.8516C111.533 15.5781 111.037 15.4414 110.443 15.4414C109.85 15.4414 109.346 15.5781 108.932 15.8516C108.525 16.125 108.213 16.4961 107.994 16.9648C107.775 17.4336 107.666 17.9727 107.666 18.582V20.1641C107.666 20.875 107.791 21.4844 108.041 21.9922C108.291 22.4922 108.639 22.8789 109.084 23.1523C109.537 23.418 110.057 23.5508 110.643 23.5508C111.049 23.5508 111.416 23.4922 111.744 23.375C112.072 23.2578 112.353 23.0859 112.588 22.8594C112.83 22.6328 113.01 22.3594 113.127 22.0391L116.478 22.2617C116.314 23.0664 115.971 23.7695 115.447 24.3711C114.932 24.9648 114.264 25.4297 113.443 25.7656C112.623 26.0938 111.674 26.2578 110.596 26.2578Z" fill="white"/>
</svg>
