<svg width="79" height="40" viewBox="0 0 79 40" fill="none" xmlns="http://www.w3.org/2000/svg">
<g clip-path="url(#clip0_27_12)">
<path d="M0.416687 6.66663V28.776L3.24539 28.787V18.2587H10.0452V15.4731H3.23451V9.44127H12.1014V6.66663H0.416687ZM17.1713 11.1631C17.6618 11.1631 18.1323 10.9667 18.4791 10.617C18.826 10.2674 19.0209 9.79316 19.0209 9.2987C19.0209 8.80423 18.826 8.33002 18.4791 7.98038C18.1323 7.63074 17.6618 7.43431 17.1713 7.43431C16.6808 7.43431 16.2104 7.63074 15.8635 7.98038C15.5166 8.33002 15.3218 8.80423 15.3218 9.2987C15.3218 9.79316 15.5166 10.2674 15.8635 10.617C16.2104 10.9667 16.6808 11.1631 17.1713 11.1631ZM15.7461 13.9377V28.787H18.5748V13.9377H15.7461Z" fill="white"/>
<path fill-rule="evenodd" clip-rule="evenodd" d="M29.0301 13.51C25.2875 13.51 22.6764 16.7014 22.6764 20.496C22.6764 24.2905 25.2875 27.4819 29.0301 27.4819C30.7491 27.4819 32.1634 26.8239 33.197 25.7272V27.7013C33.2042 28.2911 33.0953 28.8765 32.8767 29.4237C32.658 29.9709 32.334 30.4689 31.9233 30.8891C31.5125 31.3092 31.0232 31.6432 30.4837 31.8715C29.9441 32.0999 29.365 32.2182 28.7798 32.2196C27.8768 32.2196 26.9847 31.8687 26.2775 31.3642L24.8632 33.8318C25.9568 34.5444 27.221 34.9462 28.5223 34.9949C29.8237 35.0436 31.1139 34.7374 32.2569 34.1085C33.4 33.4796 34.3535 32.5514 35.0168 31.4217C35.6801 30.2921 36.0286 29.003 36.0257 27.6903V13.9487H33.197V15.2757C32.1634 14.179 30.7491 13.521 29.0301 13.521V13.51ZM25.4942 20.496C25.4942 18.1381 27.2785 16.2846 29.3456 16.2846C31.4127 16.2846 33.1861 18.149 33.1861 20.496C33.1861 22.8539 31.4018 24.6963 29.3456 24.6963C27.2785 24.6963 25.4942 22.8539 25.4942 20.496Z" fill="white"/>
<path d="M46.1872 16.2847C45.3782 16.2991 44.6074 16.634 44.0414 17.2168C43.4754 17.7997 43.1597 18.5837 43.1627 19.3993V28.787H40.334V13.9378H43.1627V15.2977C43.5859 14.7323 44.1356 14.2756 44.7671 13.965C45.3986 13.6543 46.0939 13.4985 46.7965 13.5101C48.7766 13.5101 50.2997 14.4971 51.1701 16.0105C51.6557 15.2518 52.3202 14.6263 53.1044 14.19C53.8885 13.7536 54.7678 13.52 55.6634 13.5101C58.8729 13.5101 60.8856 16.1202 60.8856 19.3555V28.787H58.0787V19.3884C58.0817 18.5727 57.766 17.7887 57.2 17.2058C56.634 16.623 55.8631 16.2881 55.0541 16.2737C54.2451 16.2881 53.4743 16.623 52.9083 17.2058C52.3423 17.7887 52.0266 18.5727 52.0296 19.3884V28.7761H49.2009V19.3884C49.2039 18.5746 48.8898 17.7922 48.3261 17.2096C47.7624 16.6271 46.9943 16.291 46.1872 16.2737V16.2847Z" fill="white"/>
<path fill-rule="evenodd" clip-rule="evenodd" d="M75.9322 15.6267C75.2899 14.9515 74.5176 14.4155 73.6627 14.0516C72.8078 13.6877 71.8882 13.5034 70.9602 13.51C66.7607 13.51 63.7796 17.0853 63.7796 21.3624C63.7796 25.6395 66.7607 29.2147 70.9602 29.2147C71.8879 29.2195 72.8069 29.0343 73.6616 28.6705C74.5162 28.3067 75.2887 27.7717 75.9322 27.0981V28.787H78.75V13.9378H75.9213V15.6267H75.9322ZM66.5975 21.3624C66.5975 18.5329 68.7516 16.2847 71.2648 16.2847C73.7672 16.2847 75.9322 18.5329 75.9322 21.3624C75.9322 24.1919 73.778 26.4291 71.2648 26.4291C68.7625 26.4291 66.5975 24.1919 66.5975 21.3624Z" fill="white"/>
</g>
<defs>
<clipPath id="clip0_27_12">
<rect width="78.3333" height="40" fill="white" transform="translate(0.416687)"/>
</clipPath>
</defs>
</svg>
