<svg width="94" height="40" viewBox="0 0 94 40" fill="none" xmlns="http://www.w3.org/2000/svg">
<g clip-path="url(#clip0_27_19)">
<path fill-rule="evenodd" clip-rule="evenodd" d="M93.3282 25.4694C89.4466 32.0505 83.2992 30.1409 81.4529 28.6457C80.6671 29.1789 79.2893 30.3474 77.452 30.2125C73.5393 29.9253 72.1382 24.3338 72.1382 24.3338C72.1663 24.3562 70.9727 24.7457 70.3276 24.7388C70.3193 26.3785 68.9019 30.2955 65.0766 30.2454C60.784 30.1894 59.9113 23.7942 59.9113 23.7942C59.9113 23.7942 59.4842 24.3874 57.8599 24.9782C57.9417 23.7185 57.8819 30.0536 52.7371 30.1467C48.6698 30.2204 47.5719 23.6956 47.5719 23.6956C47.5719 23.6956 46.8663 24.4286 45.4989 24.6828C45.5858 23.4025 45.4445 30.1682 40.2991 30.1467C36.8218 30.1323 35.6336 26.1275 35.726 25.5716C35.8439 24.8632 34.5508 30.2463 31.1732 30.1625C29.7794 30.1216 28.7403 29.1124 28.0882 27.7669C27.2153 28.7657 25.948 30.1625 24.5263 30.1625C21.9743 30.1625 20.8492 28.028 21.0398 21.9316C21.056 21.2085 21.0038 20.9241 20.285 20.8159C19.8536 20.7439 19.4118 20.6077 18.9443 20.5358C18.7944 21.0358 17.5236 29.9998 13.1535 30.17C11.6874 30.227 10.8858 28.957 10.2275 28.0144C9.21828 29.3495 7.8861 30.2125 5.98831 30.2125C2.7736 30.2125 0.583313 27.6137 0.583313 24.4079C0.583313 21.202 2.7736 18.6035 5.98831 18.6035C6.5567 18.6035 6.71627 18.685 7.23553 18.8365C6.16765 9.11368 8.68956 7.59415 10.8957 7.59415C13.0137 7.59415 16.6321 12.51 11.5407 24.9792C12.6711 28.6984 15.108 28.4881 16.279 20.8318C16.5173 19.2755 15.88 17.1754 16.8713 16.8823C18.6832 16.3466 18.8755 17.9538 19.725 18.2216C20.6234 18.5046 21.1477 18.477 22.0101 18.6571C23.4837 18.9449 24.0588 19.7365 23.8792 21.4996C23.6636 23.7306 23.2865 26.9776 24.4364 27.3734C25.2657 27.6609 26.7798 25.9411 27.0455 25.0001C27.3111 24.0591 27.3666 23.737 27.3902 23.0468C27.4261 21.5717 27.4712 20.4904 27.7228 19.3749C27.8304 18.9432 27.9531 18.6573 28.4415 18.6378C28.8434 18.6275 29.5783 18.5065 29.9019 18.7583C30.3331 19.0823 30.2792 19.4111 30.2297 20.2763C29.7282 32.6127 33.588 26.4543 34.7388 21.5232C34.329 15.9474 34.6103 7.69625 38.1044 7.55787C39.9216 7.4859 40.725 8.94168 40.8134 10.0283C41.0633 13.0973 39.6633 18.181 37.822 21.5997C36.7696 28.5756 42.423 29.9548 43.3271 24.3868C41.848 23.6835 40.2494 20.8369 41.5502 19.4497C42.2802 18.6712 45.3185 19.7896 45.3682 22.2289C46.8586 21.8304 47.0576 20.9889 47.0782 21.1283C46.6685 15.5524 47.0485 7.69632 50.5429 7.55794C52.3598 7.48597 53.1631 8.94175 53.2514 10.0284C53.5014 13.0973 52.1013 18.181 50.2603 21.5999C49.2078 28.5756 54.8613 29.955 55.7652 24.3869C54.6701 24.1756 52.3584 21.1479 53.6922 19.4498C54.405 18.5424 57.4322 20.4295 57.7711 22.3097C59.2028 21.9046 59.3973 21.0898 59.4178 21.227C59.008 15.6513 59.388 7.79514 62.8823 7.65675C64.6993 7.58479 65.5025 9.04057 65.5909 10.1272C65.8408 13.1961 64.4408 18.2799 62.5995 21.6987C61.5473 28.6746 67.2007 30.0536 68.1047 24.4855C66.5998 24.235 64.461 21.0381 66.1824 19.4027C66.8702 18.7493 69.4981 20.4455 70.1132 22.3806C70.9679 22.3477 71.4999 22.0529 71.614 22.0232C70.2495 15.4775 71.2653 7.62359 75.0242 7.55803C77.0559 7.52263 79.0422 8.6564 78.1703 14.8838C77.3381 20.8255 74.3467 23.3189 74.3537 23.357C74.5278 24.0689 76.0627 30.026 79.9281 26.8828C79.7281 26.4297 79.5277 25.9669 79.4158 25.4061C78.7751 22.1397 80.0335 18.4503 83.4539 17.854C85.4136 17.5124 87.2596 18.4665 87.5515 20.6174C88.0317 24.1371 84.8536 26.686 83.645 27.2389C83.1037 26.9314 88.5518 30.4255 91.785 23.4233C91.9725 23.0235 92.1985 23.0574 92.4914 23.2634C92.6982 23.409 93.8761 24.5249 93.3282 25.4694ZM8.32673 23.5431C8.16221 23.0512 7.8246 21.9675 7.70521 21.4979C7.04771 20.9262 6.5784 20.8333 5.73443 20.8333C3.85887 20.8333 2.75495 22.5674 2.75495 24.4372C2.75495 26.307 3.95759 28.0413 5.83316 28.0413C7.45856 28.0413 8.69563 26.9362 9.07305 25.3718C8.80888 24.7619 8.54682 24.2014 8.32673 23.5431ZM10.8497 10.1678C9.53185 10.1678 9.0848 13.3116 9.17155 15.9936C9.24829 18.3648 9.91087 20.4523 10.2546 21.3877C10.3419 21.5049 10.3256 21.4286 10.4036 21.5529C12.6918 16.5393 11.7427 10.1678 10.8497 10.1678ZM38.2927 10.2666C36.5894 10.0712 36.6004 17.1667 36.8118 18.7583C37.6965 17.3431 39.2332 10.6476 38.2927 10.2666ZM50.7307 10.2666C49.0274 10.0712 49.0384 17.1667 49.25 18.7583C50.1345 17.3431 51.6713 10.6476 50.7307 10.2666ZM63.0703 10.3653C61.3669 10.17 61.3779 17.2655 61.5894 18.8572C62.474 17.4419 64.0108 10.7463 63.0703 10.3653ZM75.2122 9.85123C72.5584 10.3841 73.1763 19.2324 73.5794 20.7843C76.7054 16.4908 76.7698 9.68996 75.2122 9.85123ZM85.158 20.9086C85.0231 20.3444 84.3484 20.0429 83.8828 20.1172C82.5503 20.2992 81.2579 21.9587 81.7582 24.4853C81.8695 25.048 82.1482 25.566 82.1437 25.5487C85.1258 23.5481 85.3793 21.9715 85.158 20.9086ZM28.9639 16.6848C28.5831 16.6849 28.2108 16.572 27.8941 16.3605C27.5774 16.1489 27.3305 15.8482 27.1847 15.4964C27.0389 15.1446 27.0008 14.7574 27.0751 14.3839C27.1493 14.0103 27.3327 13.6672 27.602 13.3979C27.8713 13.1286 28.2143 12.9452 28.5878 12.8709C28.9614 12.7965 29.3486 12.8347 29.7004 12.9804C30.0523 13.1262 30.353 13.373 30.5645 13.6896C30.7761 14.0063 30.889 14.3786 30.889 14.7594C30.889 15.0123 30.8393 15.2626 30.7425 15.4962C30.6458 15.7298 30.504 15.942 30.3252 16.1208C30.1464 16.2996 29.9342 16.4414 29.7007 16.5382C29.4671 16.635 29.2168 16.6848 28.9639 16.6848Z" fill="white"/>
</g>
<defs>
<clipPath id="clip0_27_19">
<rect width="93.3333" height="40" fill="white" transform="translate(0.583313)"/>
</clipPath>
</defs>
</svg>
